<svg width="500" height="500" viewBox="0 0 500 500" xmlns="http://www.w3.org/2000/svg">
  <!-- Soft, diffused halo (uncertainty/blurry boundary) -->
  <defs>
    <radialGradient id="halo" cx="50%" cy="50%" r="50%">
      <stop offset="0%" stop-color="#b0e0ff" stop-opacity="0.20"/>
      <stop offset="40%" stop-color="#a2b5f5" stop-opacity="0.10"/>
      <stop offset="80%" stop-color="#fff6ec" stop-opacity="0.03"/>
      <stop offset="100%" stop-color="#fff6ec" stop-opacity="0"/>
    </radialGradient>
    <radialGradient id="coreGlow" cx="50%" cy="50%" r="50%">
      <stop offset="0%" stop-color="#88f5e3" stop-opacity="1"/>
      <stop offset="60%" stop-color="#4e87ef" stop-opacity="0.9"/>
      <stop offset="100%" stop-color="#2e1760" stop-opacity="0"/>
    </radialGradient>
    <linearGradient id="branch" x1="0%" y1="0%" x2="100%" y2="100%">
      <stop offset="10%" stop-color="#4e87ef"/>
      <stop offset="50%" stop-color="#b1fcb5"/>
      <stop offset="100%" stop-color="#c2beff"/>
    </linearGradient>
    <filter id="soften" x="0" y="0" width="200%" height="200%">
      <feGaussianBlur stdDeviation="7"/>
    </filter>
    <!-- Path texture for tangled core -->
    <linearGradient id="knot1" x1="0%" y1="0%" x2="100%" y2="100%">
      <stop offset="0%" stop-color="#80ffe8"/>
      <stop offset="100%" stop-color="#4e87ef"/>
    </linearGradient>
    <linearGradient id="knot2" x1="0%" y1="0%" x2="100%" y2="100%">
      <stop offset="0%" stop-color="#e8b2fc"/>
      <stop offset="100%" stop-color="#445187"/>
    </linearGradient>
  </defs>

  <!-- Diffuse Halo -->
  <circle cx="250" cy="250" r="200" fill="url(#halo)" filter="url(#soften)"/>

  <!-- Outer semi-random, branching “tendrils” -->
  <path d="M250 250
    C 380 150, 420 180, 440 60"
    stroke="url(#branch)" stroke-width="6" fill="none" opacity="0.7" filter="url(#soften)"/>
  <path d="M250 250
    C 150 100, 80 100, 40 80"
    stroke="url(#branch)" stroke-width="5" fill="none" opacity="0.6"/>
  <path d="M250 250
    C 420 290, 480 350, 400 430"
    stroke="url(#branch)" stroke-width="4" fill="none" opacity="0.7"/>
  <path d="M250 250
    C 310 380, 330 480, 210 470"
    stroke="url(#branch)" stroke-width="7" fill="none" opacity="0.7"/>
  <path d="M250 250
    C 70 250, 0 410, 110 410"
    stroke="url(#branch)" stroke-width="4" fill="none" opacity="0.5"/>
  <path d="M250 250
    C 340 400, 450 410, 410 350"
    stroke="url(#branch)" stroke-width="4" fill="none" opacity="0.35"/>
  <path d="M250 250
    C 120 220, 80 310, 160 400"
    stroke="url(#branch)" stroke-width="6" fill="none" opacity="0.6"/>
  <path d="M250 250
    C 250 60, 300 60, 340 140"
    stroke="url(#branch)" stroke-width="5" fill="none" opacity="0.75"/>
  <path d="M250 250
    C 450 200, 470 280, 365 360"
    stroke="url(#branch)" stroke-width="4" fill="none" opacity="0.5"/>

  <!-- Core glow blur under core tangles -->
  <circle cx="250" cy="250" r="65" fill="url(#coreGlow)" filter="url(#soften)"/>

  <!-- Interwoven, tangled “core” knots -->
  <path d="M220 270
           C 230 200, 260 195, 275 260
           S 315 305, 245 330
           S 180 295, 210 250
           S 240 220, 280 250
           "
    stroke="url(#knot1)" stroke-width="11" fill="none" opacity="0.92"
    filter="url(#soften)"/>
  <path d="M235 255
           C 245 205, 285 230, 260 270
           S 215 285, 240 310
           S 295 295, 270 255
           S 230 210, 255 240"
    stroke="url(#knot2)" stroke-width="9" fill="none" opacity="0.9"/>
  <path d="M260 280
           C 280 215, 310 255, 265 296
           S 200 240, 248 230
           S 295 260, 263 297
           "
    stroke="url(#knot1)" stroke-width="6" fill="none" opacity="0.88"/>
  <path d="M250 230
           C 250 205, 295 210, 275 245
           S 210 260, 245 285
           S 280 270, 250 230"
    stroke="url(#knot2)" stroke-width="8" fill="none" opacity="0.85"/>

  <!-- Touch of inward core (small, friendly highlight) -->
  <circle cx="255" cy="243" r="9" fill="#fff6ec" opacity="0.9"/>
  <circle cx="245" cy="263" r="5" fill="#daf8ef" opacity="0.8"/>

  <!-- Some subtle floating semi-transparent circuit-like motif, below the core; barely visible -->
  <rect x="210" y="305" width="60" height="28" rx="11" fill="#7ebeff" opacity="0.16" filter="url(#soften)"/>
  <rect x="232" y="321" width="28" height="10" rx="4" fill="#aeefff" opacity="0.09" />
</svg>